# xmcd
#
# Track frame offsets: 
#        180
#        21367
#        40016
#        59414
#        76555
#        88011
#        101930
#        119685
#        134544
#        148779
#
# Disc length: 2332 seconds
#
# Revision: 1
# Processed by: cddbd v1.5.2PL0 Copyright (c) Steve Scherf et al.
# Submitted via: ExactAudioCopyFreeDBPlugin 1.0
#
DISCID=8b091a0a
DTITLE=มาลีฮวนน่า ชุดที่ 1 - บุปผาชน
DYEAR=1900
DGENRE=Country
TTITLE0=ลมเพ-ลมพัด
TTITLE1=หัวใจละเหี่ย
TTITLE2=วิถีคนจร
TTITLE3=นิรันดร์
TTITLE4=ไปไกล
TTITLE5=เรือรักกระดาษ
TTITLE6=หัวใจพรือโฉ้
TTITLE7=ลานนม-ลมเน
TTITLE8=รักสาวพรานนก
TTITLE9=ชุ่มฉ่ำในดวงใจ
EXTD=
EXTT0=
EXTT1=
EXTT2=
EXTT3=
EXTT4=
EXTT5=
EXTT6=
EXTT7=
EXTT8=
EXTT9=
PLAYORDER=
